<mxfile host="Electron" agent="Mozilla/5.0 (Windows NT 10.0; Win64; x64) AppleWebKit/537.36 (KHTML, like Gecko) draw.io/28.0.6 Chrome/138.0.7204.100 Electron/37.2.3 Safari/537.36" version="28.0.6">
  <diagram name="PÃ¡gina-1" id="gC2YgjTZQoi5BcWQ7U3I">
    <mxGraphModel dx="1042" dy="626" grid="1" gridSize="10" guides="1" tooltips="1" connect="1" arrows="1" fold="1" page="1" pageScale="1" pageWidth="827" pageHeight="1169" math="0" shadow="0">
      <root>
        <mxCell id="0" />
        <mxCell id="1" parent="0" />
        <mxCell id="6e_b5aNafFZ8YGueI4aX-1" value="" style="rounded=0;whiteSpace=wrap;html=1;fillColor=none;" vertex="1" parent="1">
          <mxGeometry x="100" y="160" width="120" height="330" as="geometry" />
        </mxCell>
        <mxCell id="6e_b5aNafFZ8YGueI4aX-2" value="SOURCE" style="text;html=1;align=center;verticalAlign=middle;whiteSpace=wrap;rounded=0;fillColor=default;strokeColor=default;" vertex="1" parent="1">
          <mxGeometry x="100" y="130" width="120" height="30" as="geometry" />
        </mxCell>
        <mxCell id="6e_b5aNafFZ8YGueI4aX-3" value="" style="rounded=0;whiteSpace=wrap;html=1;fillColor=none;strokeColor=#d79b00;" vertex="1" parent="1">
          <mxGeometry x="280" y="160" width="120" height="330" as="geometry" />
        </mxCell>
        <mxCell id="6e_b5aNafFZ8YGueI4aX-4" value="BRONZE LAYER" style="text;html=1;align=center;verticalAlign=middle;whiteSpace=wrap;rounded=0;fillColor=#ffe6cc;strokeColor=#d79b00;" vertex="1" parent="1">
          <mxGeometry x="280" y="130" width="120" height="30" as="geometry" />
        </mxCell>
        <mxCell id="6e_b5aNafFZ8YGueI4aX-52" style="rounded=0;orthogonalLoop=1;jettySize=auto;html=1;exitX=1;exitY=0.667;exitDx=0;exitDy=0;exitPerimeter=0;entryX=0;entryY=0.5;entryDx=0;entryDy=0;" edge="1" parent="1" source="6e_b5aNafFZ8YGueI4aX-37" target="6e_b5aNafFZ8YGueI4aX-45">
          <mxGeometry relative="1" as="geometry" />
        </mxCell>
        <mxCell id="6e_b5aNafFZ8YGueI4aX-53" style="rounded=0;orthogonalLoop=1;jettySize=auto;html=1;exitX=1;exitY=0.25;exitDx=0;exitDy=0;" edge="1" parent="1" source="6e_b5aNafFZ8YGueI4aX-5" target="6e_b5aNafFZ8YGueI4aX-46">
          <mxGeometry relative="1" as="geometry" />
        </mxCell>
        <mxCell id="6e_b5aNafFZ8YGueI4aX-5" value="" style="rounded=0;whiteSpace=wrap;html=1;fillColor=none;strokeColor=#666666;fontColor=#333333;" vertex="1" parent="1">
          <mxGeometry x="460" y="160" width="120" height="330" as="geometry" />
        </mxCell>
        <mxCell id="6e_b5aNafFZ8YGueI4aX-6" value="SILVER LAYER" style="text;html=1;align=center;verticalAlign=middle;whiteSpace=wrap;rounded=0;fillColor=#f5f5f5;fontColor=#333333;strokeColor=#666666;" vertex="1" parent="1">
          <mxGeometry x="460" y="130" width="120" height="30" as="geometry" />
        </mxCell>
        <mxCell id="6e_b5aNafFZ8YGueI4aX-7" value="" style="rounded=0;whiteSpace=wrap;html=1;fillColor=none;strokeColor=#d6b656;" vertex="1" parent="1">
          <mxGeometry x="640" y="160" width="120" height="330" as="geometry" />
        </mxCell>
        <mxCell id="6e_b5aNafFZ8YGueI4aX-8" value="GOLD LAYER" style="text;html=1;align=center;verticalAlign=middle;whiteSpace=wrap;rounded=0;fillColor=#fff2cc;strokeColor=#d6b656;" vertex="1" parent="1">
          <mxGeometry x="640" y="130" width="120" height="30" as="geometry" />
        </mxCell>
        <mxCell id="6e_b5aNafFZ8YGueI4aX-19" style="edgeStyle=orthogonalEdgeStyle;rounded=0;orthogonalLoop=1;jettySize=auto;html=1;entryX=0;entryY=0.5;entryDx=0;entryDy=0;" edge="1" parent="1" source="6e_b5aNafFZ8YGueI4aX-9" target="6e_b5aNafFZ8YGueI4aX-13">
          <mxGeometry relative="1" as="geometry" />
        </mxCell>
        <mxCell id="6e_b5aNafFZ8YGueI4aX-20" style="edgeStyle=orthogonalEdgeStyle;rounded=0;orthogonalLoop=1;jettySize=auto;html=1;entryX=0;entryY=0.5;entryDx=0;entryDy=0;" edge="1" parent="1" source="6e_b5aNafFZ8YGueI4aX-9" target="6e_b5aNafFZ8YGueI4aX-14">
          <mxGeometry relative="1" as="geometry" />
        </mxCell>
        <mxCell id="6e_b5aNafFZ8YGueI4aX-21" style="edgeStyle=orthogonalEdgeStyle;rounded=0;orthogonalLoop=1;jettySize=auto;html=1;entryX=0;entryY=0.5;entryDx=0;entryDy=0;" edge="1" parent="1" source="6e_b5aNafFZ8YGueI4aX-9" target="6e_b5aNafFZ8YGueI4aX-15">
          <mxGeometry relative="1" as="geometry" />
        </mxCell>
        <mxCell id="6e_b5aNafFZ8YGueI4aX-9" value="" style="image;aspect=fixed;html=1;points=[];align=center;fontSize=12;image=img/lib/azure2/general/Folder_Blank.svg;" vertex="1" parent="1">
          <mxGeometry x="135.35000000000002" y="225" width="49.29" height="40" as="geometry" />
        </mxCell>
        <mxCell id="6e_b5aNafFZ8YGueI4aX-22" style="edgeStyle=orthogonalEdgeStyle;rounded=0;orthogonalLoop=1;jettySize=auto;html=1;entryX=0;entryY=0.5;entryDx=0;entryDy=0;" edge="1" parent="1" source="6e_b5aNafFZ8YGueI4aX-10" target="6e_b5aNafFZ8YGueI4aX-16">
          <mxGeometry relative="1" as="geometry" />
        </mxCell>
        <mxCell id="6e_b5aNafFZ8YGueI4aX-23" style="edgeStyle=orthogonalEdgeStyle;rounded=0;orthogonalLoop=1;jettySize=auto;html=1;entryX=0;entryY=0.5;entryDx=0;entryDy=0;" edge="1" parent="1" source="6e_b5aNafFZ8YGueI4aX-10" target="6e_b5aNafFZ8YGueI4aX-17">
          <mxGeometry relative="1" as="geometry" />
        </mxCell>
        <mxCell id="6e_b5aNafFZ8YGueI4aX-24" style="edgeStyle=orthogonalEdgeStyle;rounded=0;orthogonalLoop=1;jettySize=auto;html=1;entryX=0;entryY=0.5;entryDx=0;entryDy=0;" edge="1" parent="1" source="6e_b5aNafFZ8YGueI4aX-10" target="6e_b5aNafFZ8YGueI4aX-18">
          <mxGeometry relative="1" as="geometry" />
        </mxCell>
        <mxCell id="6e_b5aNafFZ8YGueI4aX-10" value="" style="image;aspect=fixed;html=1;points=[];align=center;fontSize=12;image=img/lib/azure2/general/Folder_Blank.svg;" vertex="1" parent="1">
          <mxGeometry x="135.35000000000002" y="345" width="49.29" height="40" as="geometry" />
        </mxCell>
        <mxCell id="6e_b5aNafFZ8YGueI4aX-11" value="CRM" style="text;html=1;align=center;verticalAlign=middle;whiteSpace=wrap;rounded=0;" vertex="1" parent="1">
          <mxGeometry x="99.99" y="265" width="120" height="30" as="geometry" />
        </mxCell>
        <mxCell id="6e_b5aNafFZ8YGueI4aX-12" value="ERP" style="text;html=1;align=center;verticalAlign=middle;whiteSpace=wrap;rounded=0;" vertex="1" parent="1">
          <mxGeometry x="100" y="385" width="120" height="30" as="geometry" />
        </mxCell>
        <mxCell id="6e_b5aNafFZ8YGueI4aX-39" style="edgeStyle=orthogonalEdgeStyle;rounded=0;orthogonalLoop=1;jettySize=auto;html=1;entryX=0;entryY=0.5;entryDx=0;entryDy=0;" edge="1" parent="1" source="6e_b5aNafFZ8YGueI4aX-13" target="6e_b5aNafFZ8YGueI4aX-33">
          <mxGeometry relative="1" as="geometry" />
        </mxCell>
        <mxCell id="6e_b5aNafFZ8YGueI4aX-13" value="crm_cust_info" style="text;html=1;align=center;verticalAlign=middle;whiteSpace=wrap;rounded=0;fillColor=#ffe6cc;strokeColor=#d79b00;" vertex="1" parent="1">
          <mxGeometry x="280" y="180" width="120" height="30" as="geometry" />
        </mxCell>
        <mxCell id="6e_b5aNafFZ8YGueI4aX-40" style="edgeStyle=orthogonalEdgeStyle;rounded=0;orthogonalLoop=1;jettySize=auto;html=1;" edge="1" parent="1" source="6e_b5aNafFZ8YGueI4aX-14" target="6e_b5aNafFZ8YGueI4aX-34">
          <mxGeometry relative="1" as="geometry" />
        </mxCell>
        <mxCell id="6e_b5aNafFZ8YGueI4aX-14" value="crm_prd_info" style="text;html=1;align=center;verticalAlign=middle;whiteSpace=wrap;rounded=0;fillColor=#ffe6cc;strokeColor=#d79b00;" vertex="1" parent="1">
          <mxGeometry x="280" y="230" width="120" height="30" as="geometry" />
        </mxCell>
        <mxCell id="6e_b5aNafFZ8YGueI4aX-41" style="edgeStyle=orthogonalEdgeStyle;rounded=0;orthogonalLoop=1;jettySize=auto;html=1;" edge="1" parent="1" source="6e_b5aNafFZ8YGueI4aX-15" target="6e_b5aNafFZ8YGueI4aX-35">
          <mxGeometry relative="1" as="geometry" />
        </mxCell>
        <mxCell id="6e_b5aNafFZ8YGueI4aX-15" value="crm_sales_details" style="text;html=1;align=center;verticalAlign=middle;whiteSpace=wrap;rounded=0;fillColor=#ffe6cc;strokeColor=#d79b00;" vertex="1" parent="1">
          <mxGeometry x="280" y="280" width="120" height="30" as="geometry" />
        </mxCell>
        <mxCell id="6e_b5aNafFZ8YGueI4aX-42" style="edgeStyle=orthogonalEdgeStyle;rounded=0;orthogonalLoop=1;jettySize=auto;html=1;" edge="1" parent="1" source="6e_b5aNafFZ8YGueI4aX-16" target="6e_b5aNafFZ8YGueI4aX-36">
          <mxGeometry relative="1" as="geometry" />
        </mxCell>
        <mxCell id="6e_b5aNafFZ8YGueI4aX-16" value="erp_CUST_AZ12" style="text;html=1;align=center;verticalAlign=middle;whiteSpace=wrap;rounded=0;fillColor=#ffe6cc;strokeColor=#d79b00;" vertex="1" parent="1">
          <mxGeometry x="280" y="350" width="120" height="30" as="geometry" />
        </mxCell>
        <mxCell id="6e_b5aNafFZ8YGueI4aX-43" style="edgeStyle=orthogonalEdgeStyle;rounded=0;orthogonalLoop=1;jettySize=auto;html=1;entryX=0;entryY=0.5;entryDx=0;entryDy=0;" edge="1" parent="1" source="6e_b5aNafFZ8YGueI4aX-17" target="6e_b5aNafFZ8YGueI4aX-37">
          <mxGeometry relative="1" as="geometry" />
        </mxCell>
        <mxCell id="6e_b5aNafFZ8YGueI4aX-17" value="erp_LOC_A101" style="text;html=1;align=center;verticalAlign=middle;whiteSpace=wrap;rounded=0;fillColor=#ffe6cc;strokeColor=#d79b00;" vertex="1" parent="1">
          <mxGeometry x="280" y="400" width="120" height="30" as="geometry" />
        </mxCell>
        <mxCell id="6e_b5aNafFZ8YGueI4aX-44" style="edgeStyle=orthogonalEdgeStyle;rounded=0;orthogonalLoop=1;jettySize=auto;html=1;" edge="1" parent="1" source="6e_b5aNafFZ8YGueI4aX-18" target="6e_b5aNafFZ8YGueI4aX-38">
          <mxGeometry relative="1" as="geometry" />
        </mxCell>
        <mxCell id="6e_b5aNafFZ8YGueI4aX-18" value="erp_PX_CAT_G1V2" style="text;html=1;align=center;verticalAlign=middle;whiteSpace=wrap;rounded=0;fillColor=#ffe6cc;strokeColor=#d79b00;" vertex="1" parent="1">
          <mxGeometry x="280" y="450" width="120" height="30" as="geometry" />
        </mxCell>
        <mxCell id="6e_b5aNafFZ8YGueI4aX-31" value="DATAFLOW DIAGRAM" style="text;html=1;align=center;verticalAlign=middle;whiteSpace=wrap;rounded=0;fontSize=19;fontStyle=1" vertex="1" parent="1">
          <mxGeometry x="290" y="60" width="280" height="30" as="geometry" />
        </mxCell>
        <mxCell id="6e_b5aNafFZ8YGueI4aX-49" style="rounded=0;orthogonalLoop=1;jettySize=auto;html=1;entryX=0;entryY=0.5;entryDx=0;entryDy=0;exitX=1;exitY=0.5;exitDx=0;exitDy=0;" edge="1" parent="1" source="6e_b5aNafFZ8YGueI4aX-33" target="6e_b5aNafFZ8YGueI4aX-45">
          <mxGeometry relative="1" as="geometry" />
        </mxCell>
        <mxCell id="6e_b5aNafFZ8YGueI4aX-33" value="crm_cust_info" style="text;html=1;align=center;verticalAlign=middle;whiteSpace=wrap;rounded=0;fillColor=#f5f5f5;strokeColor=#666666;fontColor=#333333;" vertex="1" parent="1">
          <mxGeometry x="460" y="180" width="120" height="30" as="geometry" />
        </mxCell>
        <mxCell id="6e_b5aNafFZ8YGueI4aX-34" value="crm_prd_info" style="text;html=1;align=center;verticalAlign=middle;whiteSpace=wrap;rounded=0;fillColor=#f5f5f5;strokeColor=#666666;fontColor=#333333;" vertex="1" parent="1">
          <mxGeometry x="460" y="230" width="120" height="30" as="geometry" />
        </mxCell>
        <mxCell id="6e_b5aNafFZ8YGueI4aX-48" style="rounded=0;orthogonalLoop=1;jettySize=auto;html=1;exitX=1;exitY=0.5;exitDx=0;exitDy=0;entryX=0;entryY=0.5;entryDx=0;entryDy=0;" edge="1" parent="1" source="6e_b5aNafFZ8YGueI4aX-35" target="6e_b5aNafFZ8YGueI4aX-47">
          <mxGeometry relative="1" as="geometry" />
        </mxCell>
        <mxCell id="6e_b5aNafFZ8YGueI4aX-35" value="crm_sales_details" style="text;html=1;align=center;verticalAlign=middle;whiteSpace=wrap;rounded=0;fillColor=#f5f5f5;strokeColor=#666666;fontColor=#333333;" vertex="1" parent="1">
          <mxGeometry x="460" y="280" width="120" height="30" as="geometry" />
        </mxCell>
        <mxCell id="6e_b5aNafFZ8YGueI4aX-50" style="rounded=0;orthogonalLoop=1;jettySize=auto;html=1;entryX=0;entryY=0.5;entryDx=0;entryDy=0;exitX=1;exitY=0.5;exitDx=0;exitDy=0;" edge="1" parent="1" source="6e_b5aNafFZ8YGueI4aX-36" target="6e_b5aNafFZ8YGueI4aX-45">
          <mxGeometry relative="1" as="geometry" />
        </mxCell>
        <mxCell id="6e_b5aNafFZ8YGueI4aX-36" value="erp_CUST_AZ12" style="text;html=1;align=center;verticalAlign=middle;whiteSpace=wrap;rounded=0;fillColor=#f5f5f5;strokeColor=#666666;fontColor=#333333;" vertex="1" parent="1">
          <mxGeometry x="460" y="350" width="120" height="30" as="geometry" />
        </mxCell>
        <mxCell id="6e_b5aNafFZ8YGueI4aX-37" value="erp_LOC_A101" style="text;html=1;align=center;verticalAlign=middle;whiteSpace=wrap;rounded=0;fillColor=#f5f5f5;strokeColor=#666666;fontColor=#333333;" vertex="1" parent="1">
          <mxGeometry x="460" y="400" width="120" height="30" as="geometry" />
        </mxCell>
        <mxCell id="6e_b5aNafFZ8YGueI4aX-51" style="rounded=0;orthogonalLoop=1;jettySize=auto;html=1;entryX=0;entryY=0.5;entryDx=0;entryDy=0;" edge="1" parent="1" target="6e_b5aNafFZ8YGueI4aX-46">
          <mxGeometry relative="1" as="geometry">
            <mxPoint x="580" y="466" as="sourcePoint" />
          </mxGeometry>
        </mxCell>
        <mxCell id="6e_b5aNafFZ8YGueI4aX-38" value="erp_PX_CAT_G1V2" style="text;html=1;align=center;verticalAlign=middle;whiteSpace=wrap;rounded=0;fillColor=#f5f5f5;strokeColor=#666666;fontColor=#333333;" vertex="1" parent="1">
          <mxGeometry x="460" y="450" width="120" height="30" as="geometry" />
        </mxCell>
        <mxCell id="6e_b5aNafFZ8YGueI4aX-45" value="dim_customers" style="text;html=1;align=center;verticalAlign=middle;whiteSpace=wrap;rounded=0;fillColor=#fff2cc;strokeColor=#d6b656;" vertex="1" parent="1">
          <mxGeometry x="640" y="355" width="120" height="30" as="geometry" />
        </mxCell>
        <mxCell id="6e_b5aNafFZ8YGueI4aX-46" value="dim_products" style="text;html=1;align=center;verticalAlign=middle;whiteSpace=wrap;rounded=0;fillColor=#fff2cc;strokeColor=#d6b656;" vertex="1" parent="1">
          <mxGeometry x="640" y="225" width="120" height="30" as="geometry" />
        </mxCell>
        <mxCell id="6e_b5aNafFZ8YGueI4aX-47" value="fact_sales" style="text;html=1;align=center;verticalAlign=middle;whiteSpace=wrap;rounded=0;fillColor=#fff2cc;strokeColor=#d6b656;" vertex="1" parent="1">
          <mxGeometry x="640" y="280" width="120" height="30" as="geometry" />
        </mxCell>
      </root>
    </mxGraphModel>
  </diagram>
</mxfile>
